<svg version="1.1" id="Layer_1" xmlns="http://www.w3.org/2000/svg" xmlns:xlink="http://www.w3.org/1999/xlink" x="0px" y="0px"
	 width="100%" viewBox="0 0 512 512" enable-background="new 0 0 512 512" xml:space="preserve">
<path fill="#FFC61B" opacity="1.000000" stroke="none" 
	d="
M279.000000,513.000000 
	C264.645782,513.000000 250.291550,513.000000 235.259521,512.629028 
	C226.630798,511.190491 218.672623,510.173920 210.730301,509.045746 
	C186.890717,505.659393 164.517899,497.533875 143.129028,486.887787 
	C125.993576,478.358826 109.916641,468.070618 95.034737,455.785614 
	C76.200462,440.237915 59.783222,422.664032 45.904736,402.628174 
	C34.503136,386.168121 25.091248,368.711639 17.895294,349.970154 
	C10.540233,330.814270 5.595942,311.142059 2.974580,290.831604 
	C2.463130,286.868805 1.665585,282.942902 0.999999,279.000000 
	C1.000000,264.645782 1.000000,250.291550 1.369220,235.262482 
	C2.820048,226.471420 3.733909,218.328598 5.015249,210.244019 
	C8.617397,187.516296 16.112820,165.983398 26.003798,145.316055 
	C35.508614,125.455597 47.461170,107.130066 61.957417,90.468910 
	C75.560516,74.834290 90.319244,60.434071 107.239075,48.467804 
	C121.521454,38.366840 136.623123,29.644634 152.720139,22.545050 
	C175.148956,12.652821 198.391968,6.081803 222.667435,2.972389 
	C226.794785,2.443721 230.889954,1.663828 235.000000,1.000000 
	C249.354233,1.000000 263.708466,1.000000 278.740479,1.370898 
	C291.058258,3.498575 302.800110,4.756472 314.318604,7.108405 
	C345.265991,13.427484 373.662323,26.203547 399.839355,43.579929 
	C421.649933,58.057869 440.542999,75.953613 456.988892,96.417854 
	C474.449799,118.145058 488.106476,141.953522 497.629822,168.166565 
	C504.231445,186.337738 509.074127,204.892960 511.058044,224.165146 
	C511.432709,227.804840 512.338989,231.389786 513.000000,235.000000 
	C513.000000,249.354233 513.000000,263.708466 512.630737,278.737549 
	C511.179901,287.528900 510.248322,295.668762 508.988037,303.757416 
	C505.444153,326.501923 498.015045,348.073181 487.960083,368.655914 
	C479.190582,386.607422 468.596161,403.439758 455.781769,418.960754 
	C440.759338,437.156128 423.870575,453.165955 404.686249,466.802734 
	C385.799133,480.228210 365.433655,490.936127 343.597961,498.639252 
	C326.652557,504.617188 309.318481,509.247223 291.335266,511.045807 
	C287.199707,511.459412 283.110535,512.336304 279.000000,513.000000 
M380.690430,443.109894 
	C396.032196,433.747314 409.078644,421.739441 421.074097,408.301605 
	C415.234009,408.473755 409.649567,409.045807 404.115112,409.930573 
	C395.248718,411.348022 388.655243,416.332123 385.227570,424.442505 
	C382.744843,430.316956 381.699768,436.798981 379.776733,443.086609 
	C379.776733,443.086609 379.870911,443.417419 379.870911,443.417419 
	C379.870911,443.417419 379.976044,442.975586 380.690430,443.109894 
M199.004807,368.494324 
	C186.093719,382.851837 173.182632,397.209351 160.642151,411.154724 
	C162.502319,416.351685 164.968781,421.120026 165.863403,426.166962 
	C167.974457,438.076599 169.249435,450.132507 171.107346,462.091217 
	C171.353958,463.678497 172.702133,465.824127 174.084473,466.396393 
	C195.703476,475.346558 218.331482,480.408295 241.602005,481.810730 
	C253.797668,482.545715 266.115112,481.460052 278.369110,480.980408 
	C297.678650,480.224548 315.989319,474.704346 334.226898,468.913300 
	C339.194092,467.336060 341.856049,464.512451 343.329529,458.906708 
	C347.712097,442.233643 353.233032,425.860809 358.198639,409.337463 
	C358.484009,408.387939 358.149231,406.815826 357.490967,406.084351 
	C347.214844,394.665833 336.800293,383.372070 326.497314,371.977478 
	C319.755859,364.521790 313.142395,356.950409 307.581360,350.681793 
	C299.130096,351.876587 291.637115,353.668671 284.104370,353.854919 
	C265.964294,354.303528 247.804703,354.098694 229.655060,353.931396 
	C225.093811,353.889343 220.548737,352.860474 215.978134,352.579193 
	C214.690231,352.499908 212.950073,353.096008 212.080948,354.011993 
	C207.769119,358.556366 203.679276,363.311310 199.004807,368.494324 
M351.043304,52.536221 
	C343.344482,49.374588 335.719635,46.006466 327.892212,43.203972 
	C326.053314,42.545574 323.183014,43.204952 321.376434,44.263607 
	C305.241882,53.718605 290.799866,66.012871 273.001282,72.847778 
	C273.001282,101.422035 273.035767,129.914062 272.943054,158.405701 
	C272.934631,160.994064 273.901978,162.100952 276.181427,163.037704 
	C279.793640,164.522156 283.483368,166.078140 286.675903,168.277893 
	C299.331635,176.997986 311.963470,185.769699 324.288422,194.946350 
	C331.268250,200.143204 338.062622,205.752151 344.078430,212.004883 
	C346.685211,214.714325 348.245209,215.187592 351.433319,214.057526 
	C375.268951,205.608841 399.167572,197.337540 422.974884,188.810730 
	C424.306702,188.333740 425.623718,186.191940 425.883331,184.646240 
	C426.697510,179.798828 426.299438,174.663544 427.640350,170.005157 
	C431.203613,157.626358 435.214325,145.361877 439.517334,133.218567 
	C440.963531,129.137329 440.907104,126.257172 437.763214,123.100136 
	C434.770752,120.095245 432.245728,116.594200 429.719269,113.161110 
	C417.438538,96.473244 401.788971,83.297836 384.909790,71.733459 
	C374.455109,64.570671 362.822937,59.126476 351.043304,52.536221 
M187.947769,196.521820 
	C196.524445,190.248123 204.945999,183.746582 213.724594,177.769409 
	C221.397064,172.545410 229.318466,167.632080 237.457306,163.180115 
	C240.036957,161.769028 241.074631,160.720581 241.057831,157.836304 
	C240.945343,138.520996 240.999542,119.204704 240.999619,99.888741 
	C240.999664,90.746429 240.999634,81.604118 240.999634,72.763885 
	C237.921356,71.458244 235.038620,70.638306 232.581711,69.126381 
	C219.233307,60.912094 206.022476,52.474129 192.666473,44.272480 
	C191.119583,43.322578 188.654419,42.514164 187.146805,43.073540 
	C177.220779,46.756428 167.148041,50.240696 157.682251,54.920586 
	C143.908264,61.730457 131.015091,69.977165 118.703865,79.391472 
	C101.607880,92.464668 87.464699,108.089066 74.631927,125.090530 
	C73.618904,126.432625 73.551712,129.082153 74.036583,130.852448 
	C75.628685,136.665253 77.885597,142.294861 79.506653,148.101074 
	C82.481003,158.754395 85.567879,169.405334 87.770821,180.227631 
	C88.448624,183.557404 89.119797,185.573135 92.275894,186.674026 
	C116.440865,195.103058 140.625534,203.478638 164.705307,212.145203 
	C167.734680,213.235504 169.117065,212.233017 171.098145,210.498550 
	C176.404602,205.852600 181.909164,201.432938 187.947769,196.521820 
M157.534866,367.971893 
	C167.504471,356.669342 177.474075,345.366760 187.018509,334.546204 
	C184.652786,330.788849 182.254211,328.094482 181.093323,324.944031 
	C175.853394,310.723633 170.905228,296.394379 165.966232,282.064941 
	C161.862289,270.158203 156.815109,258.456055 157.862045,245.362122 
	C157.946259,244.308838 156.404877,242.484283 155.242371,242.066940 
	C129.785324,232.927444 104.274933,223.936554 79.191170,215.064484 
	C75.496521,219.195984 72.449707,223.385712 68.643761,226.705002 
	C59.113232,235.016922 49.212898,242.903625 39.517765,251.028732 
	C36.580959,253.489944 33.866146,256.266113 34.027237,260.498108 
	C34.526051,273.602325 33.223412,286.672150 35.789154,299.827637 
	C40.117950,322.022888 47.984291,342.812469 58.098831,362.847260 
	C59.578861,365.778900 62.174118,369.344330 64.985237,370.193451 
	C75.421974,373.345856 86.200821,375.343567 96.782913,378.042603 
	C109.084106,381.180054 121.414917,384.277374 133.512054,388.092377 
	C137.116547,389.229095 138.975800,389.028137 141.296356,386.270782 
	C146.392349,380.215546 151.762115,374.390747 157.534866,367.971893 
M470.512848,248.010086 
	C466.857666,244.958908 463.131714,241.987961 459.562500,238.839355 
	C452.755371,232.834335 445.639832,227.098145 439.481018,220.479263 
	C437.059235,217.876541 435.766846,217.509247 432.771637,218.583450 
	C409.893738,226.788437 386.974884,234.880386 364.035370,242.912018 
	C356.096558,245.691544 356.055695,245.568115 355.997711,253.542007 
	C355.989227,254.707260 356.230957,255.967636 355.877228,257.023285 
	C348.317505,279.584808 340.863525,302.185272 332.903046,324.605621 
	C331.571655,328.355408 331.473724,330.844238 334.106171,333.620972 
	C338.432648,338.184509 342.688812,342.815338 346.937897,347.451477 
	C350.959229,351.839142 354.967651,356.239502 358.920532,360.688690 
	C365.816528,368.450531 372.606384,376.308380 379.620117,383.961548 
	C380.372314,384.782379 382.487732,385.043182 383.671387,384.653748 
	C387.680817,383.334595 391.437225,380.749573 395.503082,380.187592 
	C410.453522,378.121216 425.504852,376.794983 440.481903,374.903015 
	C443.937103,374.466492 448.848236,373.930817 450.333344,371.647827 
	C455.293793,364.022461 459.409393,355.763916 463.117554,347.422943 
	C474.605774,321.581757 481.572205,294.819000 480.238678,266.125092 
	C479.869781,258.187164 477.821167,252.450562 470.512848,248.010086 
M192.978912,266.510681 
	C197.088593,279.179596 201.092636,291.884064 205.338196,304.507294 
	C209.440292,316.703918 218.515167,323.643066 231.040848,323.805817 
	C248.368469,324.030975 265.705475,324.095154 283.030304,323.780396 
	C294.783936,323.566864 303.729645,317.946350 307.713867,306.744781 
	C313.848755,289.496674 319.465485,272.048431 324.740784,254.516190 
	C328.111847,243.312576 324.526550,233.564911 315.310303,226.559265 
	C301.253937,215.874420 286.915100,205.550461 272.490356,195.364700 
	C262.482544,188.297852 251.649490,188.231094 241.691833,195.246826 
	C227.120621,205.513123 212.786865,216.118774 198.431213,226.687515 
	C193.119263,230.598190 190.132019,236.046051 188.667389,242.477753 
	C186.758545,250.860153 190.475159,258.157867 192.978912,266.510681 
M130.758896,441.739777 
	C132.942276,443.135101 135.125641,444.530396 137.543152,446.075348 
	C138.707214,433.574615 134.009430,421.839447 124.266457,417.587616 
	C114.750595,413.434906 104.313362,411.393463 94.280602,408.425201 
	C94.087868,408.913666 93.895126,409.402130 93.702393,409.890594 
	C104.697090,421.693085 116.852379,432.170776 130.758896,441.739777 
M242.016998,39.511375 
	C254.026627,47.431736 267.692993,45.178661 279.687225,33.618870 
	C265.050537,30.208593 244.801620,30.341114 233.721512,34.098988 
	C236.469910,35.894054 238.935593,37.504478 242.016998,39.511375 
M471.441559,196.003006 
	C468.265045,186.515640 465.088562,177.028275 461.623352,166.678650 
	C451.720642,184.001282 457.068573,200.657288 475.069855,210.563370 
	C473.888947,205.707077 472.802094,201.237564 471.441559,196.003006 
M41.017532,201.476105 
	C40.385048,204.374390 39.752560,207.272690 39.062824,210.433334 
	C56.782616,201.006271 62.709183,182.294418 52.153103,166.890640 
	C48.341434,178.621567 44.758087,189.649811 41.017532,201.476105 
z"/>
<path fill="#FFFFFF" opacity="1.000000" stroke="none" 
	d="
M0.999999,279.468658 
	C1.665585,282.942902 2.463130,286.868805 2.974580,290.831604 
	C5.595942,311.142059 10.540233,330.814270 17.895294,349.970154 
	C25.091248,368.711639 34.503136,386.168121 45.904736,402.628174 
	C59.783222,422.664032 76.200462,440.237915 95.034737,455.785614 
	C109.916641,468.070618 125.993576,478.358826 143.129028,486.887787 
	C164.517899,497.533875 186.890717,505.659393 210.730301,509.045746 
	C218.672623,510.173920 226.630798,511.190491 234.790863,512.629028 
	C157.072968,513.000000 79.145927,513.000000 1.000000,513.000000 
	C1.000000,435.312561 1.000000,357.624939 0.999999,279.468658 
z"/>
<path fill="#FFFFFF" opacity="1.000000" stroke="none" 
	d="
M279.468658,513.000000 
	C283.110535,512.336304 287.199707,511.459412 291.335266,511.045807 
	C309.318481,509.247223 326.652557,504.617188 343.597961,498.639252 
	C365.433655,490.936127 385.799133,480.228210 404.686249,466.802734 
	C423.870575,453.165955 440.759338,437.156128 455.781769,418.960754 
	C468.596161,403.439758 479.190582,386.607422 487.960083,368.655914 
	C498.015045,348.073181 505.444153,326.501923 508.988037,303.757416 
	C510.248322,295.668762 511.179901,287.528900 512.630737,279.206207 
	C513.000000,356.927032 513.000000,434.854095 513.000000,513.000000 
	C435.312561,513.000000 357.624939,513.000000 279.468658,513.000000 
z"/>
<path fill="#FFFFFF" opacity="1.000000" stroke="none" 
	d="
M234.531342,1.000000 
	C230.889954,1.663828 226.794785,2.443721 222.667435,2.972389 
	C198.391968,6.081803 175.148956,12.652821 152.720139,22.545050 
	C136.623123,29.644634 121.521454,38.366840 107.239075,48.467804 
	C90.319244,60.434071 75.560516,74.834290 61.957417,90.468910 
	C47.461170,107.130066 35.508614,125.455597 26.003798,145.316055 
	C16.112820,165.983398 8.617397,187.516296 5.015249,210.244019 
	C3.733909,218.328598 2.820048,226.471420 1.369220,234.793823 
	C1.000000,157.072952 1.000000,79.145912 1.000000,1.000000 
	C78.687424,1.000000 156.375061,1.000000 234.531342,1.000000 
z"/>
<path fill="#FFFFFF" opacity="1.000000" stroke="none" 
	d="
M513.000000,234.531342 
	C512.338989,231.389786 511.432709,227.804840 511.058044,224.165146 
	C509.074127,204.892960 504.231445,186.337738 497.629822,168.166565 
	C488.106476,141.953522 474.449799,118.145058 456.988892,96.417854 
	C440.542999,75.953613 421.649933,58.057869 399.839355,43.579929 
	C373.662323,26.203547 345.265991,13.427484 314.318604,7.108405 
	C302.800110,4.756472 291.058258,3.498575 279.209106,1.370898 
	C356.927032,1.000000 434.854095,1.000000 513.000000,1.000000 
	C513.000000,78.687424 513.000000,156.375061 513.000000,234.531342 
z"/>
<path fill="#FFFFFF" opacity="1.000000" stroke="none" 
	d="
M199.258026,368.243195 
	C203.679276,363.311310 207.769119,358.556366 212.080948,354.011993 
	C212.950073,353.096008 214.690231,352.499908 215.978134,352.579193 
	C220.548737,352.860474 225.093811,353.889343 229.655060,353.931396 
	C247.804703,354.098694 265.964294,354.303528 284.104370,353.854919 
	C291.637115,353.668671 299.130096,351.876587 307.581360,350.681793 
	C313.142395,356.950409 319.755859,364.521790 326.497314,371.977478 
	C336.800293,383.372070 347.214844,394.665833 357.490967,406.084351 
	C358.149231,406.815826 358.484009,408.387939 358.198639,409.337463 
	C353.233032,425.860809 347.712097,442.233643 343.329529,458.906708 
	C341.856049,464.512451 339.194092,467.336060 334.226898,468.913300 
	C315.989319,474.704346 297.678650,480.224548 278.369110,480.980408 
	C266.115112,481.460052 253.797668,482.545715 241.602005,481.810730 
	C218.331482,480.408295 195.703476,475.346558 174.084473,466.396393 
	C172.702133,465.824127 171.353958,463.678497 171.107346,462.091217 
	C169.249435,450.132507 167.974457,438.076599 165.863403,426.166962 
	C164.968781,421.120026 162.502319,416.351685 160.642151,411.154724 
	C173.182632,397.209351 186.093719,382.851837 199.258026,368.243195 
z"/>
<path fill="#FFFFFF" opacity="1.000000" stroke="none" 
	d="
M351.381348,52.723522 
	C362.822937,59.126476 374.455109,64.570671 384.909790,71.733459 
	C401.788971,83.297836 417.438538,96.473244 429.719269,113.161110 
	C432.245728,116.594200 434.770752,120.095245 437.763214,123.100136 
	C440.907104,126.257172 440.963531,129.137329 439.517334,133.218567 
	C435.214325,145.361877 431.203613,157.626358 427.640350,170.005157 
	C426.299438,174.663544 426.697510,179.798828 425.883331,184.646240 
	C425.623718,186.191940 424.306702,188.333740 422.974884,188.810730 
	C399.167572,197.337540 375.268951,205.608841 351.433319,214.057526 
	C348.245209,215.187592 346.685211,214.714325 344.078430,212.004883 
	C338.062622,205.752151 331.268250,200.143204 324.288422,194.946350 
	C311.963470,185.769699 299.331635,176.997986 286.675903,168.277893 
	C283.483368,166.078140 279.793640,164.522156 276.181427,163.037704 
	C273.901978,162.100952 272.934631,160.994064 272.943054,158.405701 
	C273.035767,129.914062 273.001282,101.422035 273.001282,72.847778 
	C290.799866,66.012871 305.241882,53.718605 321.376434,44.263607 
	C323.183014,43.204952 326.053314,42.545574 327.892212,43.203972 
	C335.719635,46.006466 343.344482,49.374588 351.381348,52.723522 
z"/>
<path fill="#FFFFFF" opacity="1.000000" stroke="none" 
	d="
M187.641388,196.722595 
	C181.909164,201.432938 176.404602,205.852600 171.098145,210.498550 
	C169.117065,212.233017 167.734680,213.235504 164.705307,212.145203 
	C140.625534,203.478638 116.440865,195.103058 92.275894,186.674026 
	C89.119797,185.573135 88.448624,183.557404 87.770821,180.227631 
	C85.567879,169.405334 82.481003,158.754395 79.506653,148.101074 
	C77.885597,142.294861 75.628685,136.665253 74.036583,130.852448 
	C73.551712,129.082153 73.618904,126.432625 74.631927,125.090530 
	C87.464699,108.089066 101.607880,92.464668 118.703865,79.391472 
	C131.015091,69.977165 143.908264,61.730457 157.682251,54.920586 
	C167.148041,50.240696 177.220779,46.756428 187.146805,43.073540 
	C188.654419,42.514164 191.119583,43.322578 192.666473,44.272480 
	C206.022476,52.474129 219.233307,60.912094 232.581711,69.126381 
	C235.038620,70.638306 237.921356,71.458244 240.999634,72.763885 
	C240.999634,81.604118 240.999664,90.746429 240.999619,99.888741 
	C240.999542,119.204704 240.945343,138.520996 241.057831,157.836304 
	C241.074631,160.720581 240.036957,161.769028 237.457306,163.180115 
	C229.318466,167.632080 221.397064,172.545410 213.724594,177.769409 
	C204.945999,183.746582 196.524445,190.248123 187.641388,196.722595 
z"/>
<path fill="#FFFFFF" opacity="1.000000" stroke="none" 
	d="
M157.277481,368.221863 
	C151.762115,374.390747 146.392349,380.215546 141.296356,386.270782 
	C138.975800,389.028137 137.116547,389.229095 133.512054,388.092377 
	C121.414917,384.277374 109.084106,381.180054 96.782913,378.042603 
	C86.200821,375.343567 75.421974,373.345856 64.985237,370.193451 
	C62.174118,369.344330 59.578861,365.778900 58.098831,362.847260 
	C47.984291,342.812469 40.117950,322.022888 35.789154,299.827637 
	C33.223412,286.672150 34.526051,273.602325 34.027237,260.498108 
	C33.866146,256.266113 36.580959,253.489944 39.517765,251.028732 
	C49.212898,242.903625 59.113232,235.016922 68.643761,226.705002 
	C72.449707,223.385712 75.496521,219.195984 79.191170,215.064484 
	C104.274933,223.936554 129.785324,232.927444 155.242371,242.066940 
	C156.404877,242.484283 157.946259,244.308838 157.862045,245.362122 
	C156.815109,258.456055 161.862289,270.158203 165.966232,282.064941 
	C170.905228,296.394379 175.853394,310.723633 181.093323,324.944031 
	C182.254211,328.094482 184.652786,330.788849 187.018509,334.546204 
	C177.474075,345.366760 167.504471,356.669342 157.277481,368.221863 
z"/>
<path fill="#FFFFFF" opacity="1.000000" stroke="none" 
	d="
M470.764954,248.266113 
	C477.821167,252.450562 479.869781,258.187164 480.238678,266.125092 
	C481.572205,294.819000 474.605774,321.581757 463.117554,347.422943 
	C459.409393,355.763916 455.293793,364.022461 450.333344,371.647827 
	C448.848236,373.930817 443.937103,374.466492 440.481903,374.903015 
	C425.504852,376.794983 410.453522,378.121216 395.503082,380.187592 
	C391.437225,380.749573 387.680817,383.334595 383.671387,384.653748 
	C382.487732,385.043182 380.372314,384.782379 379.620117,383.961548 
	C372.606384,376.308380 365.816528,368.450531 358.920532,360.688690 
	C354.967651,356.239502 350.959229,351.839142 346.937897,347.451477 
	C342.688812,342.815338 338.432648,338.184509 334.106171,333.620972 
	C331.473724,330.844238 331.571655,328.355408 332.903046,324.605621 
	C340.863525,302.185272 348.317505,279.584808 355.877228,257.023285 
	C356.230957,255.967636 355.989227,254.707260 355.997711,253.542007 
	C356.055695,245.568115 356.096558,245.691544 364.035370,242.912018 
	C386.974884,234.880386 409.893738,226.788437 432.771637,218.583450 
	C435.766846,217.509247 437.059235,217.876541 439.481018,220.479263 
	C445.639832,227.098145 452.755371,232.834335 459.562500,238.839355 
	C463.131714,241.987961 466.857666,244.958908 470.764954,248.266113 
z"/>
<path fill="#FFEEBF" opacity="1.000000" stroke="none" 
	d="
M192.868668,266.130463 
	C190.475159,258.157867 186.758545,250.860153 188.667389,242.477753 
	C190.132019,236.046051 193.119263,230.598190 198.431213,226.687515 
	C212.786865,216.118774 227.120621,205.513123 241.691833,195.246826 
	C251.649490,188.231094 262.482544,188.297852 272.490356,195.364700 
	C286.915100,205.550461 301.253937,215.874420 315.310303,226.559265 
	C324.526550,233.564911 328.111847,243.312576 324.740784,254.516190 
	C319.465485,272.048431 313.848755,289.496674 307.713867,306.744781 
	C303.729645,317.946350 294.783936,323.566864 283.030304,323.780396 
	C265.705475,324.095154 248.368469,324.030975 231.040848,323.805817 
	C218.515167,323.643066 209.440292,316.703918 205.338196,304.507294 
	C201.092636,291.884064 197.088593,279.179596 192.868668,266.130463 
z"/>
<path fill="#FFEDBB" opacity="1.000000" stroke="none" 
	d="
M130.465546,441.529480 
	C116.852379,432.170776 104.697090,421.693085 93.702393,409.890594 
	C93.895126,409.402130 94.087868,408.913666 94.280602,408.425201 
	C104.313362,411.393463 114.750595,413.434906 124.266457,417.587616 
	C134.009430,421.839447 138.707214,433.574615 137.543152,446.075348 
	C135.125641,444.530396 132.942276,443.135101 130.465546,441.529480 
z"/>
<path fill="#FFEDBC" opacity="1.000000" stroke="none" 
	d="
M380.013580,443.010071 
	C381.699768,436.798981 382.744843,430.316956 385.227570,424.442505 
	C388.655243,416.332123 395.248718,411.348022 404.115112,409.930573 
	C409.649567,409.045807 415.234009,408.473755 421.074097,408.301605 
	C409.078644,421.739441 396.032196,433.747314 380.342682,443.052277 
	C379.994934,442.994659 380.013580,443.010071 380.013580,443.010071 
z"/>
<path fill="#FFEDBB" opacity="1.000000" stroke="none" 
	d="
M241.709137,39.313137 
	C238.935593,37.504478 236.469910,35.894054 233.721512,34.098988 
	C244.801620,30.341114 265.050537,30.208593 279.687225,33.618870 
	C267.692993,45.178661 254.026627,47.431736 241.709137,39.313137 
z"/>
<path fill="#FFEDBB" opacity="1.000000" stroke="none" 
	d="
M471.578369,196.385529 
	C472.802094,201.237564 473.888947,205.707077 475.069855,210.563370 
	C457.068573,200.657288 451.720642,184.001282 461.623352,166.678650 
	C465.088562,177.028275 468.265045,186.515640 471.578369,196.385529 
z"/>
<path fill="#FFEDBB" opacity="1.000000" stroke="none" 
	d="
M41.096138,201.077087 
	C44.758087,189.649811 48.341434,178.621567 52.153103,166.890640 
	C62.709183,182.294418 56.782616,201.006271 39.062824,210.433334 
	C39.752560,207.272690 40.385048,204.374390 41.096138,201.077087 
z"/>
<path fill="#FFEDBC" opacity="1.000000" stroke="none" 
	d="
M379.985474,442.985107 
	C379.976044,442.975586 379.870911,443.417419 379.870911,443.417419 
	C379.870911,443.417419 379.776733,443.086609 379.895142,443.048340 
	C380.013580,443.010071 379.994934,442.994659 379.985474,442.985107 
z"/>
</svg>