<svg version="1.1" id="Layer_1" xmlns="http://www.w3.org/2000/svg" xmlns:xlink="http://www.w3.org/1999/xlink" x="0px" y="0px"
	 width="100%" viewBox="0 0 512 512" enable-background="new 0 0 512 512" xml:space="preserve">
<path fill="#000000" opacity="1.000000" stroke="none" 
	d="
M351.000000,513.000000 
	C235.528061,513.000000 120.556099,512.981812 5.584242,513.084412 
	C1.994024,513.087646 0.890527,512.527893 0.893438,508.586273 
	C1.017386,340.793976 1.016177,173.001572 0.894930,5.209273 
	C0.892246,1.494427 1.791602,0.909890 5.288782,0.911991 
	C173.081100,1.012778 340.873505,1.010741 508.665863,0.923236 
	C512.033875,0.921480 513.117554,1.320310 513.114502,5.163911 
	C512.981750,173.122818 512.985535,341.081848 513.099426,509.040802 
	C513.101807,512.544983 512.298279,513.099487 508.960876,513.091248 
	C456.474152,512.961182 403.987030,513.000000 351.000000,513.000000 
z"/>
<path fill="#E8AE00" opacity="1.000000" stroke="none" 
	d="
M443.247986,39.744858 
	C449.046783,45.930931 449.079041,53.186863 449.071411,60.724010 
	C448.965729,164.871292 449.119293,269.019012 448.858856,373.165741 
	C448.823700,387.214172 446.178467,401.235657 437.901062,413.083099 
	C427.782013,427.566498 414.355164,437.006744 395.788696,437.000793 
	C382.791107,436.996643 369.784119,436.683380 356.797882,437.066864 
	C330.711334,437.837250 308.889465,419.092194 305.264709,393.612396 
	C302.152832,371.737762 311.079712,352.290771 331.971924,340.447235 
	C340.507172,335.608795 349.753815,334.278564 359.240204,334.057190 
	C369.732544,333.812256 380.235291,333.955444 390.732971,334.017212 
	C396.854309,334.053223 402.723633,332.757080 408.438629,330.774841 
	C412.693268,329.299133 415.432465,325.699890 415.747772,321.643219 
	C416.092133,317.213440 417.011597,312.831879 417.009918,308.369080 
	C416.993530,264.377228 417.256744,220.382935 416.842133,176.394989 
	C416.719147,163.348129 413.678619,155.216171 400.832825,151.447678 
	C393.955322,149.430054 387.169525,152.129456 380.442291,153.312637 
	C364.922791,156.042175 349.451965,159.051514 333.975250,162.019638 
	C322.976990,164.128876 312.015167,166.428848 301.012146,168.512039 
	C287.443878,171.080856 273.835358,173.437531 260.272003,176.031204 
	C251.492737,177.710022 242.666580,179.283127 234.035263,181.561996 
	C222.656647,184.566223 211.717026,197.005249 211.813385,211.600754 
	C212.242447,276.585876 212.139557,341.575989 211.896164,406.563049 
	C211.838974,421.829529 208.851105,436.751953 201.769287,450.498108 
	C194.303360,464.989807 183.575760,475.904633 167.301712,480.294312 
	C164.003525,481.183960 160.703278,482.021973 157.233612,482.013885 
	C142.903000,481.980530 128.571259,482.109192 114.241829,481.975189 
	C90.911667,481.757080 71.226288,465.502625 66.179253,443.339111 
	C62.383060,426.668518 65.134628,411.030457 76.872826,397.438171 
	C85.511421,387.435059 96.010124,381.841980 108.946587,379.925415 
	C121.701149,378.035858 134.491699,379.790253 147.222717,378.922577 
	C155.135788,378.383209 163.058441,377.588226 170.421738,373.951508 
	C173.787033,372.289429 175.669342,369.430481 175.773331,366.411255 
	C175.938400,361.618225 177.026962,356.952972 177.024918,352.162720 
	C176.990173,270.677795 177.195709,189.191940 176.805252,107.708885 
	C176.741013,94.301186 190.584702,77.926704 204.709442,75.043625 
	C221.735886,71.568268 238.852585,68.543602 255.913422,65.239639 
	C270.441925,62.426075 285.024872,59.835651 299.557556,57.007523 
	C316.607941,53.689442 333.691162,50.532887 350.744324,47.237984 
	C365.421936,44.402081 380.112030,41.506847 394.869385,39.068176 
	C404.827515,37.422581 414.650421,35.092926 424.695251,33.828026 
	C431.918549,32.918434 437.459167,35.764812 443.247986,39.744858 
z"/>
</svg>